name D:\school\WTK\thesis\model\3dpredictsim\Results\batch_windlass\Pog_s1_tmt_aCst_d00_k500_WL20_ig24.mot
datacolumns 128
datarows 4
range 1.58354373 1.61521460
endheader
time	pelvis_tilt	pelvis_list	pelvis_rotation	pelvis_tx	pelvis_ty	pelvis_tz	hip_flexion_l	hip_adduction_l	hip_rotation_l	hip_flexion_r	hip_adduction_r	hip_rotation_r	knee_angle_l	knee_angle_r	ankle_angle_l	ankle_angle_r	subtalar_angle_l	subtalar_angle_r	tmt_angle_l	tmt_angle_r	mtp_angle_l	mtp_angle_r	lumbar_extension	lumbar_bending	lumbar_rotation	arm_flex_l	arm_add_l	arm_rot_l	arm_flex_r	arm_add_r	arm_rot_r	elbow_flex_l	elbow_flex_r	pro_sup_l	pro_sup_r	glut_med1_l/activation	glut_med2_l/activation	glut_med3_l/activation	glut_min1_l/activation	glut_min2_l/activation	glut_min3_l/activation	semimem_l/activation	semiten_l/activation	bifemlh_l/activation	bifemsh_l/activation	sar_l/activation	add_long_l/activation	add_brev_l/activation	add_mag1_l/activation	add_mag2_l/activation	add_mag3_l/activation	tfl_l/activation	pect_l/activation	grac_l/activation	glut_max1_l/activation	glut_max2_l/activation	glut_max3_l/activation	iliacus_l/activation	psoas_l/activation	quad_fem_l/activation	gem_l/activation	peri_l/activation	rect_fem_l/activation	vas_med_l/activation	vas_int_l/activation	vas_lat_l/activation	med_gas_l/activation	lat_gas_l/activation	soleus_l/activation	tib_post_l/activation	flex_dig_l/activation	flex_hal_l/activation	tib_ant_l/activation	per_brev_l/activation	per_long_l/activation	per_tert_l/activation	ext_dig_l/activation	ext_hal_l/activation	ercspn_l/activation	intobl_l/activation	extobl_l/activation	glut_med1_r/activation	glut_med2_r/activation	glut_med3_r/activation	glut_min1_r/activation	glut_min2_r/activation	glut_min3_r/activation	semimem_r/activation	semiten_r/activation	bifemlh_r/activation	bifemsh_r/activation	sar_r/activation	add_long_r/activation	add_brev_r/activation	add_mag1_r/activation	add_mag2_r/activation	add_mag3_r/activation	tfl_r/activation	pect_r/activation	grac_r/activation	glut_max1_r/activation	glut_max2_r/activation	glut_max3_r/activation	iliacus_r/activation	psoas_r/activation	quad_fem_r/activation	gem_r/activation	peri_r/activation	rect_fem_r/activation	vas_med_r/activation	vas_int_r/activation	vas_lat_r/activation	med_gas_r/activation	lat_gas_r/activation	soleus_r/activation	tib_post_r/activation	flex_dig_r/activation	flex_hal_r/activation	tib_ant_r/activation	per_brev_r/activation	per_long_r/activation	per_tert_r/activation	ext_dig_r/activation	ext_hal_r/activation	ercspn_r/activation	intobl_r/activation	extobl_r/activation	
          1.58354373	         -2.92794589	          1.35415000	         -5.52145431	          1.97942966	          0.85959710	          0.00172784	         31.63326627	          2.00910156	         -2.70308682	        -17.59417692	         -1.09169243	          7.75758130	        -18.90307581	         -9.09537416	          0.54147490	         -0.79189910	          0.35120399	         11.46994248	         -0.34912244	         -3.39178604	          1.71231524	         26.24951933	         -0.90930172	          0.46204755	          1.64010279	         -8.72815456	        -13.55033228	          6.40923083	          4.11080721	        -13.45220273	         13.94297696	         18.91253880	         33.38230140	         86.51662706	         86.51662706	          0.05000034	          0.05000039	          0.05879756	          0.05000019	          0.05000027	          0.05000156	          0.06914266	          0.06914231	          0.06995835	          0.05360676	          0.05000142	          0.09165675	          0.13008159	          0.12729444	          0.12521845	          0.10308231	          0.05878591	          0.05008751	          0.10644839	          0.05879808	          0.05880051	          0.10635748	          0.06120931	          0.06352022	          0.23888191	          0.05000066	          0.05000131	          0.05000029	          0.08935981	          0.10072356	          0.08105794	          0.06914281	          0.06914264	          0.05272248	          0.05000150	          0.05879879	          0.06913588	          0.43269634	          0.32390438	          0.17450514	          0.18107945	          0.52832297	          0.14001061	          0.05655737	          0.12272697	          0.12889771	          0.32087005	          0.09343445	          0.05879747	          0.32572152	          0.20834657	          0.09662081	          0.05000510	          0.05000051	          0.05000043	          0.07384045	          0.09542195	          0.06351551	          0.05000055	          0.05000092	          0.05000218	          0.05000262	          0.29229084	          0.05000211	          0.05000142	          0.05002796	          0.05000974	          0.05000379	          0.31458888	          0.50536808	          0.05000080	          0.05000307	          0.05000034	          0.19868756	          0.07016581	          0.06818411	          0.06505073	          0.29788518	          0.38039254	          0.26353068	          0.20940368	          0.19610588	          0.27130549	          0.05000001	          0.09656387	          0.17837534	          0.05000010	          0.05000002	          0.05000010	          0.05000002	          0.05000036	          0.05000005	
          1.59410068	         -2.92031925	          1.46182558	         -5.77688917	          1.99534498	          0.85873880	          0.00153049	         31.12351177	          2.42441278	         -2.49140056	        -17.36349480	         -1.39578190	          7.51167750	        -18.72123824	        -11.03875697	          0.32455082	         -1.63556183	         -0.23451268	         12.44296226	         -0.40448649	         -4.10751038	          1.99943265	         27.37457664	         -0.72410288	          0.20840210	          1.70302532	         -9.65177685	        -13.54068892	          6.23195982	          3.92421811	        -13.46253471	         14.31403376	         18.73833978	         34.23955290	         86.51662706	         86.51662706	          0.05879740	          0.05879744	          0.05000025	          0.05879762	          0.05879757	          0.05877691	          0.05879753	          0.05879720	          0.05949112	          0.05000040	          0.05000051	          0.11245565	          0.25862747	          0.10824866	          0.15492390	          0.11386290	          0.05000025	          0.08103707	          0.09052214	          0.05000075	          0.05000267	          0.09044438	          0.07417207	          0.05672509	          0.42800919	          0.18297298	          0.10577565	          0.05000110	          0.16024087	          0.16495983	          0.13941290	          0.05879748	          0.05879748	          0.05879745	          0.05000008	          0.05000134	          0.05879272	          0.54423765	          0.27544096	          0.14839519	          0.45980877	          0.59667222	          0.31190939	          0.05000005	          0.10436419	          0.10961163	          0.27929158	          0.07945451	          0.05000009	          0.27698627	          0.17717317	          0.08216415	          0.05000196	          0.05000030	          0.05000022	          0.06279223	          0.08114488	          0.10119488	          0.15982280	          0.05000449	          0.05000335	          0.05000076	          0.24855763	          0.07624798	          0.05000117	          0.05000098	          0.05000071	          0.05000069	          0.26751915	          0.44153024	          0.05000011	          0.05000040	          0.05000036	          0.16895933	          0.11679462	          0.07250050	          0.11015219	          0.25331465	          0.32347700	          0.22410038	          0.17807209	          0.16676412	          0.23071202	          0.05000027	          0.08211576	          0.15168633	          0.05000074	          0.05459697	          0.05000045	          0.05000001	          0.05000014	          0.07893583	
          1.60465764	         -2.90805569	          1.57721570	         -6.00545714	          2.01151893	          0.85771846	          0.00132663	         30.51286441	          2.82603350	         -2.21893472	        -17.05215276	         -1.69438194	          7.24847581	        -19.11236040	        -13.13984223	          0.15296760	         -2.53986454	         -0.86086152	         13.35634241	         -0.50262899	         -4.79677843	          2.22758249	         28.17912671	         -0.52162173	         -0.06112641	          1.75888016	        -10.57918957	        -13.53845195	          6.10824633	          3.66643363	        -13.48230368	         14.62394824	         18.56458563	         35.08792583	         86.51662706	         86.51662706	          0.05000003	          0.05000011	          0.11319179	          0.05000017	          0.05000016	          0.05000013	          0.05000013	          0.05000015	          0.05058991	          0.05000016	          0.05879863	          0.09562983	          0.21993129	          0.32723927	          0.23930940	          0.13331535	          0.05000086	          0.06914381	          0.07745606	          0.06330297	          0.10382723	          0.12544231	          0.06307698	          0.06823020	          0.41651922	          0.15559606	          0.08994925	          0.05879784	          0.27080353	          0.26938986	          0.23256873	          0.05000002	          0.05000004	          0.05000000	          0.05000002	          0.05000145	          0.05000020	          0.54634299	          0.24725387	          0.13699215	          0.56027788	          0.54840615	          0.26524072	          0.05000000	          0.08874889	          0.09321120	          0.23750316	          0.06756630	          0.05008113	          0.23554285	          0.15066402	          0.06987053	          0.05463813	          0.05000044	          0.05000140	          0.05339709	          0.06900398	          0.19417456	          0.32740721	          0.21113222	          0.06920332	          0.15548292	          0.21136783	          0.06484032	          0.05000139	          0.05026348	          0.05820577	          0.05879700	          0.22749212	          0.38882174	          0.05879723	          0.05879652	          0.05000043	          0.14367912	          0.12036915	          0.14451446	          0.09399395	          0.21541290	          0.27507735	          0.19056977	          0.15142841	          0.14181249	          0.19619224	          0.12482471	          0.06982943	          0.12899074	          0.05000016	          0.14975033	          0.05000608	          0.05234221	          0.06573789	          0.06914277	
          1.61521460	         -2.89273658	          1.69786450	         -6.20625583	          2.02785129	          0.85654187	          0.00114200	         29.67380993	          3.18364290	         -1.89760906	        -16.64758022	         -1.97716927	          6.97662297	        -19.59551095	        -15.42362462	          0.34416417	         -3.45496193	         -1.51636796	         14.17811463	         -0.86195126	         -5.32724973	          2.26674602	         28.34920802	         -0.30976171	         -0.34260712	          1.80359202	        -11.49152050	        -13.54989938	          6.05984035	          3.35083239	        -13.50952271	         14.87939302	         18.38037153	         35.93419592	         86.51662706	         86.51662706	          0.29163532	          0.31022943	          0.40251317	          0.37089085	          0.18922017	          0.27798406	          0.08188004	          0.10751801	          0.08680788	          0.06914283	          0.05000152	          0.08132145	          0.18702458	          0.27827684	          0.20350351	          0.13683635	          0.05000029	          0.05880209	          0.09811713	          0.20403588	          0.17144390	          0.11284905	          0.05738091	          0.05802150	          0.35419835	          0.13231545	          0.23236186	          0.05000035	          0.23028554	          0.25495692	          0.20640825	          0.05000027	          0.05000046	          0.05811828	          0.05074202	          0.05000063	          0.05000131	          0.58292552	          0.21025898	          0.11649496	          0.47644747	          0.55105754	          0.34814340	          0.05666997	          0.08244210	          0.07926464	          0.29449751	          0.05745684	          0.05000001	          0.27606031	          0.12812129	          0.05941634	          0.07701126	          0.05000083	          0.05000023	          0.05000064	          0.05872961	          0.16519570	          0.27841996	          0.17954207	          0.05884948	          0.13221923	          0.25753993	          0.05907716	          0.05000061	          0.05000053	          0.05000035	          0.05000032	          0.19345427	          0.37568132	          0.05000004	          0.05000015	          0.05000007	          0.12218141	          0.10235916	          0.12289177	          0.07993030	          0.18318214	          0.23391941	          0.16205611	          0.12877126	          0.12059421	          0.16683747	          0.20108651	          0.13641317	          0.14760966	          0.32112285	          0.24253977	          0.13856440	          0.08883702	          0.05590198	          0.05879743	
